<svg width="70" height="70" viewBox="0 0 70 70" fill="none" xmlns="http://www.w3.org/2000/svg">
<rect width="70" height="70" rx="35" fill="#EBF4F7"/>
<path d="M24.0007 48.7503C26.0257 48.7503 27.6673 47.1087 27.6673 45.0837C27.6673 43.0587 26.0257 41.417 24.0007 41.417C21.9756 41.417 20.334 43.0587 20.334 45.0837C20.334 47.1087 21.9756 48.7503 24.0007 48.7503Z" stroke="#3C899A" stroke-width="2" stroke-linejoin="round"/>
<path d="M45.0827 48.7503C47.1077 48.7503 48.7493 47.1087 48.7493 45.0837C48.7493 43.0587 47.1077 41.417 45.0827 41.417C43.0577 41.417 41.416 43.0587 41.416 45.0837C41.416 47.1087 43.0577 48.7503 45.0827 48.7503Z" stroke="#3C899A" stroke-width="2" stroke-linejoin="round"/>
<path d="M20.334 45.083H14.834V23.083H41.4173V45.083H27.6673" stroke="#3C899A" stroke-width="2" stroke-linecap="round" stroke-linejoin="round"/>
<path d="M41.416 45.0833V29.5H49.2731L55.166 37.2917V45.0833H49.4929" stroke="#3C899A" stroke-width="2" stroke-linecap="round" stroke-linejoin="round"/>
</svg>
